<svg id="Layer_1" data-name="Layer 1" xmlns="http://www.w3.org/2000/svg" viewBox="0 0 122.88 98"><title>brazil-real</title><path d="M87.71,88.84l-1-.06q-3.37-.21-6.65-.64t-6.27-1q-3-.53-5.79-1.28V69.37q3.64.33,7.88.54c2.83.14,5.68.25,8.58.32s5.59.11,8.1.11a27,27,0,0,0,5.89-.54A7.12,7.12,0,0,0,102,68.09a4.34,4.34,0,0,0,1.18-3.22V63.58a4,4,0,0,0-1.66-3.53,6.56,6.56,0,0,0-3.91-1.18H91.89Q79.45,58.87,73,53.4T66.59,35.06V31.52q0-11.79,7.07-17.63,5.3-4.36,14-5.47V0H99.29V8.18c1.45.08,2.87.2,4.24.34Q108,9,111.89,9.7t7,1.45V27.66c-3.29-.28-7-.51-11.1-.69s-7.84-.27-11.2-.27a29.76,29.76,0,0,0-5.36.43,6.74,6.74,0,0,0-3.65,1.71,5.09,5.09,0,0,0-1.28,3.76v1.07A4.94,4.94,0,0,0,88,37.74a8.26,8.26,0,0,0,5.26,1.4h7.07q7.52,0,12.49,2.84a18.54,18.54,0,0,1,7.51,7.72,23.82,23.82,0,0,1,2.52,11.1v3.54q0,10.18-3.54,15.54a17.35,17.35,0,0,1-10.08,7.24,50,50,0,0,1-10,1.68V98H87.71V88.84ZM0,88.35V8.69H34A34.19,34.19,0,0,1,43.64,10a18.44,18.44,0,0,1,7.61,4.34,20.08,20.08,0,0,1,5,8.21,40.4,40.4,0,0,1,1.77,13,37.9,37.9,0,0,1-.86,8.58,23.06,23.06,0,0,1-2.3,6.17,16.25,16.25,0,0,1-3.44,4.23,26.38,26.38,0,0,1-4.23,3L61,88.35H39.89L28.74,60.9H20.8V88.35Zm20.8-44h9.44a8.58,8.58,0,0,0,3-.48,5.24,5.24,0,0,0,2.2-1.56,6.72,6.72,0,0,0,1.34-2.73,16.6,16.6,0,0,0,.43-4,15.94,15.94,0,0,0-.43-4,5.14,5.14,0,0,0-3.54-3.86,9.69,9.69,0,0,0-3-.43H20.8V44.39Z"/></svg>