<svg id="Layer_1" data-name="Layer 1" xmlns="http://www.w3.org/2000/svg" viewBox="0 0 122.88 122.88"><defs><style>.cls-1{fill-rule:evenodd;}</style></defs><title>euro-sign</title><path class="cls-1" d="M61.44,0A61.44,61.44,0,1,1,0,61.44,61.44,61.44,0,0,1,61.44,0ZM74.79,51.93l-3,6.59H54.72c0,.95-.09,2-.09,3s0,1.93.08,2.83H69l-3.35,6.78H55.81c.09.28.18.55.28.82a11,11,0,0,0,4.12,5.68,11.51,11.51,0,0,0,6.43,1.76,15.19,15.19,0,0,0,4.6-.67,18.07,18.07,0,0,0,3.49-1.54c1-.57,1.77-1,2.33-1.45l5.35,11.33a22.61,22.61,0,0,1-7.24,3.81,28,28,0,0,1-8.53,1.27,26.47,26.47,0,0,1-13.8-3.58,24.47,24.47,0,0,1-9.39-10.45,30.86,30.86,0,0,1-2.41-7H32.45l2.48-6.78h5.21c0-.92-.07-1.87-.07-2.83s0-2,.09-3H32.45l2.48-6.59H41a31.37,31.37,0,0,1,2.41-7,24.83,24.83,0,0,1,9.39-10.54,26,26,0,0,1,13.8-3.64,26.87,26.87,0,0,1,8.68,1.34,25.41,25.41,0,0,1,7.29,3.83L77.3,47.18c-.64-.34-1.44-.82-2.44-1.41a20.48,20.48,0,0,0-3.56-1.59,14.63,14.63,0,0,0-4.66-.69,11.15,11.15,0,0,0-6.43,1.82,11.44,11.44,0,0,0-4.12,5.8c-.1.26-.19.54-.28.82ZM61.44,10.48a51,51,0,1,1-51,51,51,51,0,0,1,51-51Z"/></svg>