<svg id="Layer_1" data-name="Layer 1" xmlns="http://www.w3.org/2000/svg" viewBox="0 0 122.88 122.88"><defs><style>.cls-1{fill-rule:evenodd;}</style></defs><title>pound-sign</title><path class="cls-1" d="M61.44,0A61.44,61.44,0,1,1,0,61.44,61.44,61.44,0,0,1,61.44,0ZM59.25,55.79h11.3v8.93h-10A19.09,19.09,0,0,1,59.4,70.4a14.27,14.27,0,0,1-2.6,4,17.43,17.43,0,0,1,3.57-.46,22.2,22.2,0,0,1,5,.73,31.91,31.91,0,0,0,6.67,1,16,16,0,0,0,3.54-.34,21.74,21.74,0,0,0,4-1.45L84.58,85A33,33,0,0,1,78.1,87.5a24.33,24.33,0,0,1-6,.7,30.8,30.8,0,0,1-8-1.22c-3.94-1.08-6.38-1.7-7.34-1.88a18.1,18.1,0,0,0-3.05-.25q-4.8,0-10.6,3.35L38.29,77.6Q46.15,72,46.15,66.39c0-.2,0-.76-.08-1.67H38.29V55.79h5.57c-.94-3.26-1.49-5.17-1.6-5.69A16.07,16.07,0,0,1,42,47.16a14.69,14.69,0,0,1,2.48-8.35A14.13,14.13,0,0,1,51,33.45,28.87,28.87,0,0,1,61.9,31.77,29.17,29.17,0,0,1,72,33.21,14.36,14.36,0,0,1,78.35,38,19.27,19.27,0,0,1,81.91,46L67.65,48.24q-1.07-4-2.46-5.26a4.77,4.77,0,0,0-6.65.12,5.59,5.59,0,0,0-1.33,4,12.77,12.77,0,0,0,.26,2.66q.26,1.29,1.78,6Zm2.19-45.31a51,51,0,1,1-51,51,51,51,0,0,1,51-51Z"/></svg>